name processed_emg_signals						
nRows=103						
nColumns=7						
 						
endheader						
time	LGLTMED	LRF	LADDLONG	LST	LTA	LGM
1.355	0.039622465	0.205975203	0.216341263	0.037890857	0.342406674	0.039406563
1.356	0.039384154	0.204851848	0.215606942	0.037546263	0.34210021	0.039334219
1.357	0.039144962	0.203689866	0.214865538	0.037231288	0.341715362	0.039278947
1.358	0.038905057	0.202491862	0.214117533	0.036945335	0.341252657	0.03924016
1.359	0.038664603	0.201260491	0.213363406	0.036687786	0.340712692	0.039217263
1.36	0.038423763	0.199998449	0.212603641	0.036458002	0.340096128	0.039209662
1.361	0.038182698	0.198708469	0.211838719	0.036255325	0.339403693	0.03921676
1.362	0.037941567	0.197393317	0.211069123	0.036079082	0.338636177	0.039237959
1.363	0.037700529	0.196055786	0.210295335	0.035928583	0.33779444	0.039272659
1.364	0.037459738	0.194698692	0.209517838	0.035803121	0.336879399	0.039320264
1.365	0.037219349	0.193324867	0.20873711	0.03570198	0.335892037	0.039380178
1.366	0.036979514	0.191937159	0.207953631	0.035624428	0.334833397	0.039451805
1.367	0.03674038	0.190538422	0.207167878	0.035569725	0.333704582	0.039534554
1.368	0.036502097	0.189131515	0.206380323	0.03553712	0.332506753	0.039627836
1.369	0.036264808	0.187719295	0.205591438	0.035525853	0.331241127	0.039731069
1.37	0.036028655	0.186304615	0.20480169	0.035535158	0.329908978	0.03984367
1.371	0.035793779	0.184890315	0.20401154	0.035564264	0.328511634	0.039965067
1.372	0.035560317	0.183479224	0.203221446	0.035612392	0.327050473	0.04009469
1.373	0.035328403	0.182074151	0.202431862	0.035678763	0.325526926	0.040231976
1.374	0.03509817	0.180677882	0.201643232	0.035762594	0.32394247	0.04037637
1.375	0.034869746	0.179293177	0.200855995	0.035863099	0.322298631	0.040527324
1.376	0.034643257	0.177922763	0.200070585	0.035979494	0.320596979	0.040684296
1.377	0.034418827	0.176569336	0.199287425	0.036110996	0.318839127	0.040846753
1.378	0.034196575	0.175235551	0.198506931	0.03625682	0.31702673	0.041014172
1.379	0.03397662	0.173924023	0.19772951	0.036416189	0.31516148	0.041186038
1.38	0.033759075	0.17263732	0.196955558	0.036588325	0.31324511	0.041361845
1.381	0.03354405	0.171377964	0.196185461	0.036772457	0.311279383	0.041541096
1.382	0.033331654	0.170148424	0.195419594	0.036967818	0.3092661	0.041723307
1.383	0.033121992	0.168951114	0.194658322	0.03717365	0.307207091	0.041908001
1.384	0.032915163	0.167788392	0.193901995	0.037389199	0.305104215	0.042094713
1.385	0.032711266	0.166662557	0.193150953	0.03761372	0.302959358	0.042282991
1.386	0.032510396	0.165575842	0.192405519	0.037846478	0.300774431	0.04247239
1.387	0.032312644	0.16453042	0.191666006	0.038086744	0.29855137	0.04266248
1.388	0.032118098	0.163528393	0.190932711	0.038333803	0.296292129	0.042852842
1.389	0.031926841	0.162571797	0.190205915	0.038586948	0.293998684	0.043043067
1.39	0.031738955	0.161662594	0.189485885	0.038845485	0.291673026	0.043232761
1.391	0.031554518	0.160802677	0.188772872	0.03910873	0.289317161	0.04342154
1.392	0.031373604	0.159993862	0.188067112	0.039376014	0.286933109	0.043609033
1.393	0.031196283	0.159237891	0.187368824	0.039646678	0.284522902	0.043794882
1.394	0.031022623	0.158536429	0.186678209	0.03992008	0.282088578	0.043978742
1.395	0.030852688	0.157891063	0.185995453	0.040195588	0.279632186	0.044160279
1.396	0.030686539	0.157303299	0.185320726	0.040472588	0.277155775	0.044339174
1.397	0.030524232	0.156774566	0.184654178	0.040750479	0.274661403	0.044515118
1.398	0.030365823	0.156306211	0.183995945	0.041028676	0.272151124	0.044687819
1.399	0.03021136	0.155899501	0.183346144	0.041306608	0.269626995	0.044856994
1.4	0.030060892	0.155555619	0.182704875	0.041583722	0.267091068	0.045022375
1.401	0.029914462	0.155275668	0.182072222	0.041859479	0.264545391	0.045183707
1.402	0.02977211	0.155060668	0.181448251	0.042133358	0.261992006	0.045340747
1.403	0.029633875	0.154911558	0.180833013	0.042404854	0.259432946	0.045493264
1.404	0.029499789	0.154829192	0.180226539	0.04267348	0.256870233	0.045641043
1.405	0.029369883	0.154814345	0.179628848	0.042938763	0.254305877	0.045783877
1.406	0.029244185	0.154867705	0.179039938	0.04320025	0.251741875	0.045921575
1.407	0.029122718	0.154989884	0.178459797	0.043457505	0.249180206	0.046053958
1.408	0.029005504	0.155181408	0.177888391	0.043710109	0.246622833	0.046180858
1.409	0.028892559	0.155442723	0.177325677	0.043957658	0.244071696	0.046302119
1.41	0.028783897	0.155774196	0.176771593	0.04419977	0.241528718	0.046417598
1.411	0.02867953	0.156176111	0.176226064	0.044436077	0.238995794	0.046527163
1.412	0.028579465	0.156648675	0.175689003	0.04466623	0.236474797	0.046630695
1.413	0.028483705	0.157192013	0.175160306	0.044889896	0.233967572	0.046728084
1.414	0.028392252	0.157806175	0.17463986	0.045106762	0.231475934	0.046819233
1.415	0.028305104	0.158491132	0.174127537	0.045316531	0.22900167	0.046904055
1.416	0.028222254	0.159246778	0.173623198	0.045518921	0.226546534	0.046982473
1.417	0.028143693	0.16007293	0.173126695	0.045713671	0.224112246	0.047054422
1.418	0.02806941	0.160969332	0.172637866	0.045900533	0.221700491	0.047119846
1.419	0.027999387	0.161935654	0.172156543	0.04607928	0.219312918	0.047178699
1.42	0.027933608	0.162971489	0.171682545	0.046249698	0.216951137	0.047230944
1.421	0.027872048	0.164076361	0.171215686	0.04641159	0.214616719	0.047276555
1.422	0.027814683	0.165249722	0.170755771	0.046564777	0.212311195	0.047315513
1.423	0.027761484	0.166490953	0.170302597	0.046709094	0.210036051	0.04734781
1.424	0.027712418	0.167799366	0.169855958	0.046844392	0.207792733	0.047373445
1.425	0.027667451	0.169174204	0.169415638	0.046970537	0.20558264	0.047392424
1.426	0.027626543	0.170614643	0.168981421	0.047087412	0.203407127	0.047404762
1.427	0.027589653	0.172119793	0.168553084	0.04719491	0.2012675	0.047410484
1.428	0.027556736	0.173688701	0.168130403	0.047292944	0.19916502	0.047409618
1.429	0.027527742	0.175320348	0.167713149	0.047381437	0.197100895	0.047402202
1.43	0.027502621	0.177013653	0.167301095	0.047460326	0.195076288	0.047388279
1.431	0.027481317	0.178767474	0.166894011	0.047529564	0.193092307	0.0473679
1.432	0.027463773	0.18058061	0.166491667	0.047589113	0.191150012	0.04734112
1.433	0.027449926	0.182451801	0.166093835	0.04763895	0.18925041	0.047308003
1.434	0.027439714	0.18437973	0.165700288	0.047679063	0.187394453	0.047268616
1.435	0.027433066	0.186363023	0.165310802	0.047709452	0.185583042	0.047223031
1.436	0.027429914	0.188400252	0.164925154	0.047730128	0.183817023	0.047171328
1.437	0.027430184	0.190489938	0.164543127	0.047741113	0.182097188	0.047113588
1.438	0.027433797	0.192630548	0.164164507	0.047742438	0.180424273	0.0470499
1.439	0.027440675	0.1948205	0.163789086	0.047734146	0.17879896	0.046980355
1.44	0.027450733	0.197058162	0.16341666	0.047716288	0.177221875	0.046905048
1.441	0.027463888	0.199341855	0.163047032	0.047688923	0.175693586	0.04682408
1.442	0.027480049	0.201669856	0.162680013	0.047652122	0.174214607	0.046737552
1.443	0.027499124	0.204040394	0.162315418	0.047605961	0.172785396	0.046645571
1.444	0.027521021	0.206451657	0.161953072	0.047550523	0.171406353	0.046548245
1.445	0.027545641	0.20890179	0.161592807	0.047485902	0.17007782	0.046445687
1.446	0.027572885	0.2113889	0.161234464	0.047412194	0.168800085	0.046338011
1.447	0.027602651	0.213911051	0.160877891	0.047329505	0.167573378	0.046225333
1.448	0.027634835	0.216466273	0.160522947	0.047237945	0.16639787	0.04610777
1.449	0.027669329	0.219052558	0.160169497	0.04713763	0.165273678	0.045985444
1.45	0.027706024	0.221667863	0.159817419	0.04702868	0.16420086	0.045858475
1.451	0.027744809	0.224310113	0.159466597	0.046911221	0.163179417	0.045726987
1.452	0.027785572	0.226977199	0.159116926	0.046785381	0.162209293	0.045591102
1.453	0.027828196	0.229666984	0.158768308	0.046651295	0.161290376	0.045450946
1.454	0.027872565	0.232377299	0.158420657	0.046509097	0.160422495	0.045306642
1.455	0.027918561	0.235105951	0.158073894	0.046358928	0.159605424	0.045158316
1.456	0.027966063	0.23785072	0.157727949	0.046200929	0.158838879	0.045006092
1.457	0.028014951	0.240609359	0.157382761	0.046035245	0.158122518	0.044850095
